<svg fill="none" height="335" viewBox="0 0 326 335" width="326" xmlns="http://www.w3.org/2000/svg"><g fill="#3ddc84"><path d="m237.822 289.232c-7.445 0-13.549-6.053-13.549-13.528 0-7.474 6.063-13.527 13.549-13.527 7.446 0 13.548 6.053 13.548 13.527 0 7.475-6.102 13.528-13.548 13.528zm-149.6026 0c-7.4455 0-13.5487-6.053-13.5487-13.528 0-7.474 6.0625-13.527 13.5487-13.527 7.4456 0 13.5476 6.053 13.5476 13.527 0 7.475-6.0613 13.528-13.5476 13.528zm154.4446-81.366 27.056-46.756c1.546-2.681.61-6.134-2.076-7.678-2.685-1.543-6.143-.609-7.689 2.072l-27.381 47.365c-20.954-9.546-44.471-14.867-69.574-14.867s-48.619 5.321-69.5726 14.867l-27.3827-47.365c-1.546-2.681-5.0039-3.615-7.6892-2.072-2.6853 1.544-3.6211 4.997-2.075 7.678l27.0558 46.756c-46.4635 25.226-78.19809 72.185-82.8363 127.634h325c-4.638-55.49-36.373-102.449-82.836-127.634z"/><path d="m122.592 98h20.816c2.549 0 4.592 2.117 4.592 4.711v6.578c0 2.615-2.063 4.711-4.592 4.711h-20.816c-2.549 0-4.592-2.117-4.592-4.711v-6.578c0-2.594 2.063-4.711 4.592-4.711z"/><path d="m122.592 0h20.816c2.549 0 4.592 2.11673 4.592 4.71077v6.57843c0 2.6148-2.063 4.7108-4.592 4.7108h-20.816c-2.549 0-4.592-2.1167-4.592-4.7108v-6.57843c0-2.61479 2.063-4.71077 4.592-4.71077z"/><path d="m118 104c0 5.523 4.477 10 10 10h8v-40.7141c0-4.0205-4.034-7.2859-9-7.2859h-9z"/><path d="m107.376 48c-4.07 0-7.376 4.0337-7.376 9s3.306 9 7.376 9h10.624v-18z"/><path d="m136 40.6981v-40.6981h-8c-5.523 0-10 4.47715-10 10v38h9c4.99-.0189 9-3.2641 9-7.3019z"/></g><g fill="#4285f4"><path d="m203.408 98h-20.816c-2.549 0-4.592 2.117-4.592 4.711v6.578c0 2.615 2.063 4.711 4.592 4.711h20.816c2.549 0 4.592-2.117 4.592-4.711v-6.578c0-2.594-2.063-4.711-4.592-4.711z"/><path d="m203.408 0h-20.816c-2.549 0-4.592 2.11673-4.592 4.71077v6.57843c0 2.6148 2.063 4.7108 4.592 4.7108h20.816c2.549 0 4.592-2.1167 4.592-4.7108v-6.57843c0-2.61479-2.063-4.71077-4.592-4.71077z"/><path d="m208 104c0 5.523-4.477 10-10 10h-8v-40.7141c0-4.0205 4.034-7.2859 9-7.2859h9z"/><path d="m218.624 48c4.07 0 7.376 4.0337 7.376 9s-3.306 9-7.376 9h-10.624v-18z"/><path d="m190 40.6981v-40.6981h8c5.523 0 10 4.47715 10 10v38h-9c-4.99-.0189-9-3.2641-9-7.3019z"/></g></svg>