<svg width="480" height="480" fill="none" xmlns="http://www.w3.org/2000/svg"><path d="M229.702 229.19H30.686C18.183 229.19 8 239.308 8 251.876v83.267c0 13.728 11.15 24.877 24.877 24.877H187.36l42.342 38.411V229.19z" fill="#3DDC84"/><path fill-rule="evenodd" clip-rule="evenodd" d="M32 281h104.939v-16H32v16zM32 321.459h174.476v-16H32v16z" fill="#D7EFFE"/><path d="M442.756 224.943l-261.593.261-29.076 46.225c-3.308 5.223.523 12.013 6.616 12.013l305.468-.522c6.094 0 9.837-6.703 6.703-11.927l-28.118-46.05z" fill="#1769E0"/><path d="M330.314 321.783c-2.43 10.948-9.415 20.128-18.795 25.35a.984.984 0 000 1.734c9.38 5.239 16.365 14.402 18.795 25.35a.95.95 0 001.872 0c2.43-10.948 9.415-20.128 18.795-25.35a.984.984 0 000-1.734c-9.38-5.239-16.365-14.402-18.795-25.35a.95.95 0 00-1.872 0z" fill="#F6DA00"/><path d="M442.844 224.943l-261.594.261v-115.78c0-16.28 13.232-29.424 29.511-29.424l202.659.174c16.279 0 29.424 13.232 29.424 29.424v115.345z" fill="#4285F4"/><path fill-rule="evenodd" clip-rule="evenodd" d="M211.196 98.281c-6.334 0-11.491 5.131-11.491 11.578v97.064h224.683v-97.064c0-6.421-5.218-11.578-11.578-11.578H211.196zm-18.455 11.578c0-10.267 8.249-18.542 18.455-18.542H412.81c10.18 0 18.542 8.249 18.542 18.542v104.028H192.741V109.859z" fill="#D7EFFE"/><path fill-rule="evenodd" clip-rule="evenodd" d="M326.684 188.601c-2.196 0-4.394-.797-6.067-2.389-1.62-1.543-2.513-3.595-2.513-5.777 0-2.181.893-4.233 2.513-5.776l20.914-19.913a1.161 1.161 0 000-1.698l-20.914-19.912c-1.62-1.544-2.513-3.595-2.513-5.777s.893-4.234 2.513-5.776c3.346-3.185 8.788-3.186 12.134 0l33.938 32.314-33.938 32.315c-1.672 1.592-3.87 2.389-6.067 2.389z" fill="#1769E0"/><path fill-rule="evenodd" clip-rule="evenodd" d="M289.746 186.213l-33.939-32.314 33.939-32.313c1.62-1.542 3.775-2.392 6.066-2.392 2.292 0 4.446.85 6.067 2.393 1.62 1.542 2.513 3.594 2.513 5.776s-.893 4.233-2.513 5.776l-20.913 19.912a1.163 1.163 0 000 1.696l20.913 19.913c1.62 1.543 2.513 3.594 2.513 5.776s-.893 4.233-2.513 5.777c-1.673 1.592-3.87 2.388-6.066 2.388-2.198 0-4.395-.796-6.067-2.388z" fill="#3DDC84"/><path d="M140.442 168.042h7.347a2.863 2.863 0 002.875-2.875v-24.786a2.863 2.863 0 00-2.875-2.875h-7.347v30.536z" fill="#F86734"/><path d="M79.116 117v71.548l61.327-20.442-.064-30.664L79.116 117z" fill="#073042"/><path fill-rule="evenodd" clip-rule="evenodd" d="M58.273 119.288a2 2 0 00-2.806-.355C46.102 126.195 40 138.95 40 153.349c0 13.873 5.64 26.148 14.38 33.533a2 2 0 102.582-3.055C49.22 177.285 44 166.18 44 153.349c0-13.325 5.652-24.845 13.918-31.255a2 2 0 00.355-2.806z" fill="#F86734"/><path fill-rule="evenodd" clip-rule="evenodd" d="M67.098 127.693a2 2 0 00-2.779-.528c-7.986 5.439-13.204 15.144-13.204 26.12 0 10.508 4.814 19.862 12.235 25.428a2 2 0 102.4-3.2c-6.377-4.783-10.635-12.932-10.635-22.228 0-9.722 4.62-18.159 11.456-22.814a2 2 0 00.527-2.778z" fill="#F86734"/><path fill-rule="evenodd" clip-rule="evenodd" d="M73.845 135.963a2 2 0 00-2.79-.469c-5.225 3.722-8.632 10.29-8.632 17.664 0 7.091 3.127 13.439 7.989 17.228a2 2 0 002.459-3.155c-3.826-2.982-6.448-8.133-6.448-14.073 0-6.169 2.852-11.484 6.954-14.406a2 2 0 00.468-2.789z" fill="#F86734"/></svg>