<svg width="96" height="96" fill="none" xmlns="http://www.w3.org/2000/svg"><path d="M67.455 28H28.54C17.197 28 8 36.954 8 48s9.196 20 20.541 20H67.46C78.805 68 88 59.046 88 48c-.004-11.046-9.2-20-20.545-20z" fill="#4285F4"/><path d="M28 37.872c5.583 0 10.128 4.545 10.128 10.128S33.583 58.128 28 58.128 17.872 53.583 17.872 48 22.417 37.872 28 37.872zm0-2.029c-6.713 0-12.157 5.444-12.157 12.157 0 6.714 5.444 12.157 12.157 12.157 6.714 0 12.157-5.443 12.157-12.157 0-6.713-5.443-12.157-12.157-12.157z" fill="#F86734"/><path d="M68 43.686a3.923 3.923 0 000-7.843 3.923 3.923 0 000 7.843zM76.235 51.922a3.923 3.923 0 000-7.843 3.923 3.923 0 000 7.843zM71.922 56.236a3.923 3.923 0 00-7.843 0 3.923 3.923 0 007.843 0zM60.453 44.144a4.022 4.022 0 00-.686-.065A3.924 3.924 0 0055.843 48a3.924 3.924 0 003.924 3.922c.235 0 .462-.023.686-.066A3.92 3.92 0 0063.686 48c0-1.93-1.399-3.528-3.233-3.856z" fill="#3DDC84"/></svg>