<svg width="96" height="96" fill="none" xmlns="http://www.w3.org/2000/svg"><path d="M68.995 36.388c-.015-.73-.02-1.142-.02-1.142l-42.795-.614v31.697C26.205 72.112 37.451 79 48.004 79c.15 0 .3-.005.45-.01 5.585-.106 11.325-2.213 15.39-5.06 3.366-2.365 5.58-5.232 5.58-7.893-.005-5.373-.344-24.735-.429-29.65z" fill="#1769E0"/><path d="M48.005 57.922l-38.6-18.924c-1.88-.92-1.87-3.627.014-4.532L43.711 17.98a9.878 9.878 0 018.583 0l34.287 16.49c1.885.905 1.895 3.611.015 4.532l-38.59 18.92z" fill="#4285F4"/><path fill-rule="evenodd" clip-rule="evenodd" d="M46.04 34.968a1.923 1.923 0 012.57-.889l22.648 11.007a1.923 1.923 0 011.082 1.73v11.348a1.923 1.923 0 01-3.846 0V48.02L46.93 37.54a1.923 1.923 0 01-.89-2.57z" fill="#EFF7CF"/></svg>