<svg width="96" height="96" fill="none" xmlns="http://www.w3.org/2000/svg"><path d="M83.994 84H69.086V60.613c0-5.576-.099-12.755-7.753-12.755-7.764 0-8.952 6.076-8.952 12.35v23.79H37.473V35.906h14.311v6.572h.2a15.697 15.697 0 015.989-5.839 15.662 15.662 0 018.132-1.93C81.215 34.71 84 44.667 84 57.618L83.994 84zM20.653 29.332a8.64 8.64 0 01-4.807-1.46 8.663 8.663 0 01-3.187-3.888 8.68 8.68 0 011.874-9.445 8.647 8.647 0 019.427-1.88 8.654 8.654 0 013.883 3.191 8.677 8.677 0 01-1.074 10.943 8.65 8.65 0 01-6.116 2.54zM28.106 84H13.183V35.906h14.923V84z" fill="#0A66C2"/></svg>