<svg width="480" height="480" fill="none" xmlns="http://www.w3.org/2000/svg"><rect x="150" y="75.638" width="269.913" height="371.131" rx="17.104" fill="#4285F4"/><path fill-rule="evenodd" clip-rule="evenodd" d="M150.002 446.769V75.639h22.493v371.13h-22.493z" fill="#1769E0"/><path fill="#073042" d="M218.416 61.931h132.555v42.76H218.416z"/><circle cx="285.015" cy="60.116" r="28.116" fill="#073042"/><path fill-rule="evenodd" clip-rule="evenodd" d="M369.302 161.391H234.346v-22.493h134.956v22.493zM369.302 206.377H234.346v-22.493h134.956v22.493zM369.302 251.363H234.346V228.87h134.956v22.493z" fill="#1769E0"/><circle cx="206.232" cy="150.145" r="11.246" fill="#1769E0"/><circle cx="206.232" cy="195.131" r="11.246" fill="#1769E0"/><circle cx="206.232" cy="240.117" r="11.246" fill="#1769E0"/><path d="M156.322 445.538c-49.888 0-99.776-48.159-117.531-67.176-4.058-4.346-4.098-10.871-.082-15.256C56.174 344.042 105.25 296 156.322 296c51.036 0 100.453 47.971 118.101 67.065 4.066 4.399 4.026 10.978-.082 15.338-17.937 19.045-68.167 67.135-118.019 67.135z" fill="#fff"/><path d="M156.615 320.923c-27.495 0-49.846 22.351-49.846 49.846 0 27.495 22.351 49.846 49.846 49.846 27.496 0 49.846-22.351 49.846-49.846 0-27.495-22.379-49.846-49.846-49.846z" fill="#D7EFFE"/><path fill-rule="evenodd" clip-rule="evenodd" d="M223.85 327.441a3.997 3.997 0 010 5.656l-65.923 65.924a4 4 0 01-5.651.006l-26.522-26.413a4.001 4.001 0 015.645-5.669l23.694 23.596 63.101-63.1a4 4 0 015.656 0z" fill="#3DDC84"/><path d="M384 302.309h62.308v145.385H404.76c-11.47 0-20.76-9.299-20.76-20.769V302.309z" fill="#3DDC84"/><path d="M415.154 240L384 302.308h62.308L415.154 240z" fill="#EFF7CF"/><path d="M399.577 271.154h31.154L415.154 240l-15.577 31.154z" fill="#3DDC84"/><path d="M99.314 208.783c-2.43 10.948-9.415 20.128-18.795 25.35a.984.984 0 000 1.734c9.38 5.239 16.365 14.402 18.795 25.35a.951.951 0 001.872 0c2.43-10.948 9.415-20.128 18.795-25.35a.984.984 0 000-1.734c-9.38-5.239-16.365-14.402-18.795-25.35a.951.951 0 00-1.872 0z" fill="#F6DA00"/></svg>