<svg width="480" height="480" fill="none" xmlns="http://www.w3.org/2000/svg"><g clip-path="url(#clip0)"><path d="M22.577 211.414c5.726 0 10.367-4.634 10.367-10.35 0-5.716-4.641-10.35-10.367-10.35-5.726 0-10.368 4.634-10.368 10.35 0 5.716 4.642 10.35 10.368 10.35zM51.075 186.847c5.725 0 10.367-4.634 10.367-10.35 0-5.716-4.642-10.35-10.367-10.35-5.726 0-10.368 4.634-10.368 10.35 0 5.716 4.642 10.35 10.367 10.35zM51.075 231.441c5.725 0 10.367-4.634 10.367-10.35 0-5.716-4.642-10.35-10.367-10.35-5.726 0-10.368 4.634-10.368 10.35 0 5.716 4.642 10.35 10.367 10.35z" fill="#F86734"/><path d="M69.203 232.404H12.19v141.689h57.013V232.404z" fill="#D7EFFE"/><path d="M40.704 403.323c15.748 0 28.515-12.744 28.515-28.466 0-15.721-12.767-28.466-28.515-28.466-15.748 0-28.514 12.745-28.514 28.466 0 15.722 12.766 28.466 28.514 28.466zM74.29 240.492H7.14a7.216 7.216 0 01-7.229-7.216v-1.758a7.216 7.216 0 017.228-7.216H74.29a7.216 7.216 0 017.229 7.216v1.758c-.016 3.99-3.247 7.216-7.229 7.216z" fill="#D7EFFE"/><path d="M119.491 192.563h24.307c2.976 0 5.362 2.185 5.362 4.861v6.788c0 2.698-2.409 4.861-5.362 4.861h-24.307c-2.976 0-5.362-2.184-5.362-4.861v-6.788c0-2.676 2.41-4.861 5.362-4.861zM119.491 77h24.307c2.976 0 5.362 2.184 5.362 4.86v6.788c0 2.699-2.409 4.861-5.362 4.861h-24.307c-2.976 0-5.362-2.184-5.362-4.86V81.86c0-2.698 2.41-4.861 5.362-4.861z" fill="#4285F4"/><path d="M114.129 209.073h18.546v-49.011c0-4.84-4.156-8.771-9.273-8.771h-9.273v57.782zM101.967 134.782c-4.66 0-8.444 3.7-8.444 8.255 0 4.555 3.785 8.254 8.444 8.254h12.163v-16.509h-12.163zM132.675 125.992V77h-18.546v57.782h9.273c5.141-.023 9.273-3.929 9.273-8.79zM232.404 192.563h-24.307c-2.976 0-5.362 2.185-5.362 4.861v6.788c0 2.698 2.41 4.861 5.362 4.861h24.307c2.976 0 5.362-2.184 5.362-4.861v-6.788c0-2.676-2.409-4.861-5.362-4.861zM232.404 77h-24.307c-2.976 0-5.362 2.184-5.362 4.86v6.788c0 2.699 2.41 4.861 5.362 4.861h24.307c2.976 0 5.362-2.184 5.362-4.86V81.86c0-2.698-2.409-4.861-5.362-4.861z" fill="#4285F4"/><path d="M237.766 209.073H219.22v-49.011c0-4.84 4.156-8.771 9.273-8.771h9.273v57.782zM249.928 134.781c4.66 0 8.444 3.7 8.444 8.255 0 4.555-3.784 8.254-8.444 8.254h-12.162v-16.509h12.162zM219.22 125.992V77h18.546v57.782h-9.273c-5.141-.023-9.273-3.929-9.273-8.79zM461.195 103.177H331.597c-10.368 0-18.787 8.302-18.787 18.525v236.705c0 10.223 8.419 18.525 18.787 18.525h129.616c10.368 0 18.787-8.302 18.787-18.525V121.702c-.018-10.241-8.419-18.525-18.805-18.525z" fill="#4285F4"/><path fill-rule="evenodd" clip-rule="evenodd" d="M333.768 140.518c-1.238 0-2.153.985-2.153 2.065v194.925c0 1.09.907 2.065 2.153 2.065h125.241c1.237 0 2.152-.985 2.152-2.065V142.583c0-1.09-.907-2.065-2.152-2.065H333.768zm-10.385 2.065c0-5.735 4.71-10.297 10.385-10.297h125.241c5.666 0 10.384 4.536 10.384 10.297v194.925c0 5.736-4.71 10.297-10.384 10.297H333.768c-5.667 0-10.385-4.535-10.385-10.297V142.583z" fill="#fff"/><path d="M282.243 359.15c37.848 0 68.529-30.192 68.529-67.436 0-37.244-30.681-67.436-68.529-67.436-37.847 0-68.528 30.192-68.528 67.436 0 37.244 30.681 67.436 68.528 67.436z" fill="#D7EFFE"/><path fill-rule="evenodd" clip-rule="evenodd" d="M282.244 233.166c-33.074 0-59.64 26.347-59.64 58.547 0 32.201 26.566 58.547 59.64 58.547 33.073 0 59.639-26.346 59.639-58.547 0-32.2-26.566-58.547-59.639-58.547zm-77.418 58.547c0-42.287 34.796-76.325 77.418-76.325 42.621 0 77.417 34.038 77.417 76.325 0 42.287-34.796 76.325-77.417 76.325-42.622 0-77.418-34.038-77.418-76.325z" fill="#F86734"/><path d="M103.233 394.669c-4.05-6.795-1.736-15.537 5.188-19.522l108.597-62.368 14.668 24.628-108.615 62.349c-6.905 3.985-15.789 1.708-19.838-5.087z" fill="#F86734"/></g><defs><clipPath id="clip0"><path fill="#fff" d="M0 0h480v480H0z"/></clipPath></defs></svg>