<svg width="240" height="240" fill="none" xmlns="http://www.w3.org/2000/svg"><path fill-rule="evenodd" clip-rule="evenodd" d="M103.663 172.869a3.974 3.974 0 01-.038 5.619l-23.23 22.92a3.973 3.973 0 11-5.581-5.656l23.23-22.921a3.974 3.974 0 015.619.038z" fill="#4285F4"/><path fill-rule="evenodd" clip-rule="evenodd" d="M146.891 166.634a3.974 3.974 0 01.014 5.619l-34.714 34.891a3.974 3.974 0 01-5.633-5.605l34.713-34.891a3.975 3.975 0 015.62-.014z" fill="#F86734"/><path fill-rule="evenodd" clip-rule="evenodd" d="M67.05 135.259a3.973 3.973 0 01-.037 5.619l-23.96 23.653a3.973 3.973 0 11-5.582-5.655l23.96-23.654a3.974 3.974 0 015.618.037z" fill="#4285F4"/><path fill-rule="evenodd" clip-rule="evenodd" d="M83.438 155.274a3.973 3.973 0 01-.036 5.619l-34.6 34.157a3.973 3.973 0 11-5.583-5.655l34.6-34.158a3.974 3.974 0 015.619.037z" fill="#F6DA00"/><path fill-rule="evenodd" clip-rule="evenodd" d="M73.49 94.172a3.973 3.973 0 01.013 5.62L38.789 134.67a3.974 3.974 0 01-5.632-5.606l34.714-34.878a3.973 3.973 0 015.619-.014z" fill="#F86734"/><path d="M112.557 160.884l-28.5-28.136a9.847 9.847 0 010-14.043l74.357-73.407 35.619 35.164-81.476 80.422z" fill="#4285F4"/><path d="M202.246 32h-55.252c-5.233 0-7.861 6.245-4.151 9.908l55.416 54.708c3.697 3.65 10.036 1.067 10.036-4.098V37.96c-.012-3.29-2.716-5.96-6.049-5.96z" fill="#4285F4"/></svg>