<svg width="96" height="96" fill="none" xmlns="http://www.w3.org/2000/svg"><path fill-rule="evenodd" clip-rule="evenodd" d="M86 25.194a31.509 31.509 0 01-8.952 2.418c3.22-1.9 5.685-4.911 6.853-8.49a31.727 31.727 0 01-9.907 3.728A15.658 15.658 0 0062.615 18c-8.61 0-15.591 6.876-15.591 15.35 0 1.203.138 2.377.404 3.5-12.956-.641-24.444-6.755-32.133-16.044a15.061 15.061 0 00-2.108 7.718c0 5.327 2.754 10.028 6.933 12.778a15.774 15.774 0 01-7.062-1.927v.192c0 7.437 5.376 13.643 12.505 15.056a16.017 16.017 0 01-4.108.538c-1.007 0-1.98-.098-2.935-.285 1.985 6.104 7.74 10.542 14.56 10.664-5.333 4.116-12.057 6.562-19.361 6.562-1.259 0-2.498-.075-3.719-.21A44.562 44.562 0 0033.898 78.8c28.68 0 44.356-23.396 44.356-43.686l-.052-1.988A30.879 30.879 0 0086 25.194z" fill="#1DA1F2"/></svg>